<svg xmlns:dc="http://purl.org/dc/elements/1.1/" xmlns:cc="http://creativecommons.org/ns#" xmlns:rdf="http://www.w3.org/1999/02/22-rdf-syntax-ns#" xmlns:svg="http://www.w3.org/2000/svg" xmlns="http://www.w3.org/2000/svg" xmlns:xlink="http://www.w3.org/1999/xlink" id="svg487329" viewBox="0 0 1024 768" height="768px" width="1024px" version="1.1">
  <metadata id="metadata487335">
    <rdf:rdf>
      <cc:work rdf:about="">
        <dc:format>image/svg+xml</dc:format>
        <dc:type rdf:resource="http://purl.org/dc/dcmitype/StillImage"></dc:type>
      </cc:work>
    </rdf:rdf>
  </metadata>
  <defs id="defs487333"></defs>
  <linearGradient spreadMethod="pad" y2="30%" x2="-10%" y1="120%" x1="30%" id="3d_gradient2-logo-fb27d811-3cf9-471c-b132-2921fd1d4f60">
    <stop id="stop487310" stop-opacity="1" stop-color="#ffffff" offset="0%"></stop>
    <stop id="stop487312" stop-opacity="1" stop-color="#000000" offset="100%"></stop>
  </linearGradient>
  <linearGradient gradientTransform="rotate(-30)" spreadMethod="pad" y2="30%" x2="-10%" y1="120%" x1="30%" id="3d_gradient3-logo-fb27d811-3cf9-471c-b132-2921fd1d4f60">
    <stop id="stop487315" stop-opacity="1" stop-color="#ffffff" offset="0%"></stop>
    <stop id="stop487317" stop-opacity="1" stop-color="#cccccc" offset="50%"></stop>
    <stop id="stop487319" stop-opacity="1" stop-color="#000000" offset="100%"></stop>
  </linearGradient>
  <g id="logo-group">
    <image xlink:href="" id="container" x="272" y="144" width="480" height="480" transform="translate(0 0)" style="display: none;"></image>
    <g id="logo-center" transform="translate(0 0)">
      <image xlink:href="" id="icon_container" x="0" y="0" style="display: none;"></image>
      <g id="slogan" style="font-style:normal;font-weight:normal;font-size:32px;line-height:1;font-family:'Brandmark Sans 10';font-variant-ligatures:none;text-align:center;text-anchor:middle" transform="translate(0 0)">
        <path id="path487337" style="font-style:normal;font-weight:normal;font-size:32px;line-height:1;font-family:'Brandmark Sans 10';font-variant-ligatures:none;text-align:center;text-anchor:middle" d="m 416.785,-1.888 -8.032,-19.648 c -0.224,-0.512 -0.736,-0.864 -1.28,-0.864 h -0.672 c -0.576,0 -1.056,0.352 -1.28,0.864 l -8.064,19.648 c -0.352,0.832 0.224,1.792 1.152,1.888 h 9.728 c 0.736,0 1.312,-0.608 1.312,-1.312 0,-0.736 -0.576,-1.344 -1.312,-1.344 h -7.584 l 5.984,-14.592 0.384,-0.96 0.384,0.96 6.752,16.384 c 0.192,0.512 0.704,0.864 1.28,0.864 0.96,0 1.632,-0.992 1.248,-1.888 z" stroke-width="0" stroke-linejoin="miter" stroke-miterlimit="2" fill="#26ce33" stroke="#26ce33" transform="translate(0 384.10400000000004) translate(340.46940499999994 38.800000000000004) scale(1.5) translate(-397.35254 22.4)"></path>
        <path id="path487339" style="font-style:normal;font-weight:normal;font-size:32px;line-height:1;font-family:'Brandmark Sans 10';font-variant-ligatures:none;text-align:center;text-anchor:middle" d="m 434.5605,-22.4 c -0.736,0 -1.344,0.608 -1.344,1.312 v 6.272 c -1.536,-1.504 -3.584,-2.432 -5.888,-2.432 -4.704,0 -8.544,3.936 -8.544,8.8 0,4.832 3.84,8.768 8.544,8.768 2.304,0 4.352,-0.928 5.888,-2.432 v 0.8 c 0,0.704 0.608,1.312 1.344,1.312 0.736,0 1.312,-0.608 1.312,-1.312 v -19.776 c 0,-0.704 -0.576,-1.312 -1.312,-1.312 z m -13.12,13.952 c 0,-3.392 2.656,-6.144 5.888,-6.144 3.264,0 5.888,2.752 5.888,6.144 0,3.36 -2.624,6.112 -5.888,6.112 -3.232,0 -5.888,-2.752 -5.888,-6.112 z" stroke-width="0" stroke-linejoin="miter" stroke-miterlimit="2" fill="#26ce33" stroke="#26ce33" transform="translate(0 384.10400000000004) translate(372.617345 38.800000000000004) scale(1.5) translate(-418.7845 22.4)"></path>
        <path id="path487341" style="font-style:normal;font-weight:normal;font-size:32px;line-height:1;font-family:'Brandmark Sans 10';font-variant-ligatures:none;text-align:center;text-anchor:middle" d="m 459.274,-17.248 c -2.432,0 -4.576,1.248 -5.888,3.136 -1.312,-1.888 -3.456,-3.136 -5.888,-3.136 -4,0 -7.232,3.328 -7.232,7.424 v 8.512 c 0,0.704 0.608,1.312 1.312,1.312 0.736,0 1.344,-0.608 1.344,-1.312 v -8.512 c 0,-2.624 2.048,-4.768 4.576,-4.768 2.496,0 4.544,2.144 4.544,4.768 v 8.512 c 0,0.704 0.608,1.312 1.344,1.312 0.736,0 1.312,-0.608 1.312,-1.312 v -8.512 c 0,-2.624 2.048,-4.768 4.576,-4.768 2.528,0 4.576,2.144 4.576,4.768 v 8.512 c 0,0.704 0.576,1.312 1.312,1.312 0.736,0 1.312,-0.608 1.312,-1.312 v -8.512 c 0,-4.096 -3.232,-7.424 -7.2,-7.424 z" stroke-width="0" stroke-linejoin="miter" stroke-miterlimit="2" fill="#26ce33" stroke="#26ce33" transform="translate(0 384.10400000000004) translate(404.83959500000003 46.528) scale(1.5) translate(-440.266 17.248)"></path>
        <path id="path487343" style="font-style:normal;font-weight:normal;font-size:32px;line-height:1;font-family:'Brandmark Sans 10';font-variant-ligatures:none;text-align:center;text-anchor:middle" d="m 471.834,-18.752 c 0.992,0 1.824,-0.832 1.824,-1.824 0,-0.992 -0.832,-1.824 -1.824,-1.824 -0.992,0 -1.824,0.832 -1.824,1.824 0,0.992 0.832,1.824 1.824,1.824 z m -1.312,17.44 c 0,0.704 0.576,1.312 1.312,1.312 0.736,0 1.312,-0.608 1.312,-1.312 v -13.952 c 0,-0.736 -0.576,-1.312 -1.312,-1.312 -0.736,0 -1.312,0.576 -1.312,1.312 z" stroke-width="0" stroke-linejoin="miter" stroke-miterlimit="2" fill="#26ce33" stroke="#26ce33" transform="translate(0 384.10400000000004) translate(449.45559499999996 38.800000000000004) scale(1.5) translate(-470.01 22.4)"></path>
        <path id="path487345" style="font-style:normal;font-weight:normal;font-size:32px;line-height:1;font-family:'Brandmark Sans 10';font-variant-ligatures:none;text-align:center;text-anchor:middle" d="m 484.6595,-17.248 c -4.128,0 -7.488,3.456 -7.488,7.68 v 8.256 c 0,0.704 0.608,1.312 1.312,1.312 0.736,0 1.344,-0.608 1.344,-1.312 v -8.256 c 0,-2.784 2.176,-5.024 4.832,-5.024 2.656,0 4.832,2.24 4.832,5.024 v 8.256 c 0,0.704 0.576,1.312 1.312,1.312 0.736,0 1.344,-0.608 1.344,-1.312 v -8.256 c 0,-4.224 -3.36,-7.68 -7.488,-7.68 z" stroke-width="0" stroke-linejoin="miter" stroke-miterlimit="2" fill="#26ce33" stroke="#26ce33" transform="translate(0 384.10400000000004) translate(460.1978449999999 46.528) scale(1.5) translate(-477.1715 17.248)"></path>
        <path id="path487347" style="font-style:normal;font-weight:normal;font-size:32px;line-height:1;font-family:'Brandmark Sans 10';font-variant-ligatures:none;text-align:center;text-anchor:middle" d="m 515.7335,-22.4 h -8 c -0.704,0 -1.312,0.608 -1.312,1.312 0,0.736 0.608,1.344 1.312,1.344 h 8 c 2.176,0 3.968,1.76 3.968,3.936 0,2.176 -1.792,3.968 -3.968,3.968 h -8 c -0.704,0 -1.312,0.576 -1.312,1.312 v 9.216 c 0,0.704 0.608,1.312 1.312,1.312 0.736,0 1.344,-0.608 1.344,-1.312 v -7.872 h 6.656 c 3.648,0 6.624,-2.976 6.624,-6.624 0,-3.616 -2.976,-6.592 -6.624,-6.592 z" stroke-width="0" stroke-linejoin="miter" stroke-miterlimit="2" fill="#26ce33" stroke="#26ce33" transform="translate(0 384.10400000000004) translate(504.0728449999999 38.800000000000004) scale(1.5) translate(-506.4215 22.4)"></path>
        <path id="path487349" style="font-style:normal;font-weight:normal;font-size:32px;line-height:1;font-family:'Brandmark Sans 10';font-variant-ligatures:none;text-align:center;text-anchor:middle" d="m 531.614,-17.088 c -3.968,0.736 -6.976,4.32 -6.976,8.64 v 7.136 c 0,0.704 0.608,1.312 1.312,1.312 0.736,0 1.344,-0.608 1.344,-1.312 v -7.136 c 0,-3.04 2.08,-5.536 4.832,-6.048 0.64,-0.128 1.056,-0.672 1.056,-1.312 0,-0.832 -0.736,-1.44 -1.568,-1.28 z" stroke-width="0" stroke-linejoin="miter" stroke-miterlimit="2" fill="#26ce33" stroke="#26ce33" transform="translate(0 384.10400000000004) translate(531.397595 46.729522) scale(1.5) translate(-524.638 17.113652)"></path>
        <path id="path487351" style="font-style:normal;font-weight:normal;font-size:32px;line-height:1;font-family:'Brandmark Sans 10';font-variant-ligatures:none;text-align:center;text-anchor:middle" d="m 551.56,-1.312 v -7.136 c 0,-4.864 -3.84,-8.8 -8.544,-8.8 -4.704,0 -8.544,3.936 -8.544,8.8 0,4.832 3.84,8.768 8.544,8.768 2.304,0 4.352,-0.928 5.888,-2.432 v 0.8 c 0,0.704 0.608,1.312 1.344,1.312 0.736,0 1.312,-0.608 1.312,-1.312 z m -14.432,-7.136 c 0,-3.392 2.656,-6.144 5.888,-6.144 3.264,0 5.888,2.752 5.888,6.144 0,3.36 -2.624,6.112 -5.888,6.112 -3.232,0 -5.888,-2.752 -5.888,-6.112 z" stroke-width="0" stroke-linejoin="miter" stroke-miterlimit="2" fill="#26ce33" stroke="#26ce33" transform="translate(0 384.10400000000004) translate(546.148595 46.528) scale(1.5) translate(-534.472 17.248)"></path>
        <path id="path487353" style="font-style:normal;font-weight:normal;font-size:32px;line-height:1;font-family:'Brandmark Sans 10';font-variant-ligatures:none;text-align:center;text-anchor:middle" d="m 569.18,-5.152 c -0.416,0 -0.832,0.224 -1.088,0.544 -1.056,1.408 -2.72,2.272 -4.576,2.272 -3.232,0 -5.888,-2.752 -5.888,-6.112 0,-3.392 2.656,-6.144 5.888,-6.144 1.856,0 3.52,0.896 4.576,2.272 0.256,0.352 0.672,0.544 1.088,0.544 1.088,0 1.728,-1.248 1.056,-2.112 -1.568,-2.048 -4,-3.36 -6.72,-3.36 -4.704,0 -8.544,3.936 -8.544,8.8 0,4.832 3.84,8.768 8.544,8.768 2.72,0 5.152,-1.312 6.72,-3.328 0.672,-0.864 0.032,-2.144 -1.056,-2.144 z" stroke-width="0" stroke-linejoin="miter" stroke-miterlimit="2" fill="#26ce33" stroke="#26ce33" transform="translate(0 384.10400000000004) translate(576.898595 46.528) scale(1.5) translate(-554.972 17.248)"></path>
        <path id="path487355" style="font-style:normal;font-weight:normal;font-size:32px;line-height:1;font-family:'Brandmark Sans 10';font-variant-ligatures:none;text-align:center;text-anchor:middle" d="m 579.8735,-2.368 c -1.824,-0.416 -3.2,-2.112 -3.2,-4.16 v -7.904 h 2.912 c 0.64,0 1.152,-0.512 1.152,-1.152 0,-0.64 -0.512,-1.184 -1.152,-1.184 h -2.912 v -4.416 c 0,-0.64 -0.512,-1.152 -1.152,-1.152 h -0.352 c -0.64,0 -1.152,0.512 -1.152,1.152 v 14.656 c 0,3.328 2.272,6.112 5.344,6.752 0.704,0.16 1.376,-0.384 1.376,-1.12 v -0.352 c 0,-0.512 -0.352,-0.992 -0.864,-1.12 z" stroke-width="0" stroke-linejoin="miter" stroke-miterlimit="2" fill="#26ce33" stroke="#26ce33" transform="translate(0 384.10400000000004) translate(605.4668450000001 38.896) scale(1.5) translate(-574.0175 22.336)"></path>
        <path id="path487357" style="font-style:normal;font-weight:normal;font-size:32px;line-height:1;font-family:'Brandmark Sans 10';font-variant-ligatures:none;text-align:center;text-anchor:middle" d="m 585.459,-18.752 c 0.992,0 1.824,-0.832 1.824,-1.824 0,-0.992 -0.832,-1.824 -1.824,-1.824 -0.992,0 -1.824,0.832 -1.824,1.824 0,0.992 0.832,1.824 1.824,1.824 z m -1.312,17.44 c 0,0.704 0.576,1.312 1.312,1.312 0.736,0 1.312,-0.608 1.312,-1.312 v -13.952 c 0,-0.736 -0.576,-1.312 -1.312,-1.312 -0.736,0 -1.312,0.576 -1.312,1.312 z" stroke-width="0" stroke-linejoin="miter" stroke-miterlimit="2" fill="#26ce33" stroke="#26ce33" transform="translate(0 384.10400000000004) translate(619.8930950000001 38.800000000000004) scale(1.5) translate(-583.635 22.4)"></path>
        <path id="path487359" style="font-style:normal;font-weight:normal;font-size:32px;line-height:1;font-family:'Brandmark Sans 10';font-variant-ligatures:none;text-align:center;text-anchor:middle" d="m 604.7425,-5.152 c -0.416,0 -0.832,0.224 -1.088,0.544 -1.056,1.408 -2.72,2.272 -4.576,2.272 -3.232,0 -5.888,-2.752 -5.888,-6.112 0,-3.392 2.656,-6.144 5.888,-6.144 1.856,0 3.52,0.896 4.576,2.272 0.256,0.352 0.672,0.544 1.088,0.544 1.088,0 1.728,-1.248 1.056,-2.112 -1.568,-2.048 -4,-3.36 -6.72,-3.36 -4.704,0 -8.544,3.936 -8.544,8.8 0,4.832 3.84,8.768 8.544,8.768 2.72,0 5.152,-1.312 6.72,-3.328 0.672,-0.864 0.032,-2.144 -1.056,-2.144 z" stroke-width="0" stroke-linejoin="miter" stroke-miterlimit="2" fill="#26ce33" stroke="#26ce33" transform="translate(0 384.10400000000004) translate(630.2423450000001 46.528) scale(1.5) translate(-590.5345 17.248)"></path>
        <path id="path487361" style="font-style:normal;font-weight:normal;font-size:32px;line-height:1;font-family:'Brandmark Sans 10';font-variant-ligatures:none;text-align:center;text-anchor:middle" d="m 625.996,-9.632 c -0.544,-4.288 -4.128,-7.616 -8.48,-7.616 -4.704,0 -8.544,3.936 -8.544,8.8 0,4.832 3.84,8.768 8.544,8.768 2.656,0 5.024,-1.216 6.56,-3.168 0.704,-0.864 0.064,-2.144 -1.024,-2.144 -0.416,0 -0.8,0.192 -1.056,0.512 -1.056,1.312 -2.688,2.144 -4.48,2.144 -2.016,0 -3.776,-1.024 -4.864,-2.656 -0.448,-0.672 -0.768,-1.472 -0.928,-2.304 h 13.184 c 0.64,0 1.152,-0.512 1.152,-1.152 0,-0.416 -0.032,-0.8 -0.064,-1.184 z m -14.272,0 c 0.544,-2.816 2.912,-4.96 5.792,-4.96 2.88,0 5.28,2.144 5.792,4.96 z" stroke-width="0" stroke-linejoin="miter" stroke-miterlimit="2" fill="#26ce33" stroke="#26ce33" transform="translate(0 384.10400000000004) translate(657.8985950000001 46.528) scale(1.5) translate(-608.972 17.248)"></path>
      </g>
      <g id="title" style="font-style:normal;font-weight:normal;font-size:72px;line-height:1;font-family:'Brandmark Sans 10';font-variant-ligatures:normal;text-align:center;text-anchor:middle" transform="translate(0 0)">
        <path id="path487364" style="font-style:normal;font-weight:normal;font-size:72px;line-height:1;font-family:'Brandmark Sans 10';font-variant-ligatures:normal;text-align:center;text-anchor:middle" d="m 421.83575,-5.256 h -8.424 c 5.616,-4.752 9.144,-11.952 9.144,-19.944 0,-14.328 -11.304,-25.92 -25.2,-25.92 -13.896,0 -25.2,11.592 -25.2,25.92 0,14.328 11.304,25.92 25.2,25.92 h 24.48 c 1.656,0 2.952,-1.296 2.952,-2.952 0,-1.656 -1.296,-3.024 -2.952,-3.024 z m -43.704,-19.944 c 0,-11.016 8.64,-19.944 19.224,-19.944 10.584,0 19.224,8.928 19.224,19.944 0,11.016 -8.64,19.944 -19.224,19.944 -10.584,0 -19.224,-8.928 -19.224,-19.944 z" stroke-width="0" stroke-linejoin="miter" stroke-miterlimit="2" fill="#26ce33" stroke="#26ce33" transform="translate(0 309.58000000000004) translate(240.41265799999985 1.436) scale(1.95) translate(-372.15575 51.12)"></path>
        <path id="path487366" style="font-style:normal;font-weight:normal;font-size:72px;line-height:1;font-family:'Brandmark Sans 10';font-variant-ligatures:normal;text-align:center;text-anchor:middle" d="m 435.82963,-42.192 c 2.23199,0 4.10399,-1.872 4.10399,-4.104 0,-2.232 -1.872,-4.104 -4.10399,-4.104 -2.23201,0 -4.10401,1.872 -4.10401,4.104 0,2.232 1.872,4.104 4.10401,4.104 z m -2.952,39.24 c 0,1.584 1.296,2.952 2.952,2.952 1.656,0 2.952,-1.368 2.952,-2.952 v -31.392 c 0,-1.656 -1.296,-2.952 -2.952,-2.952 -1.656,0 -2.952,1.296 -2.952,2.952 z" stroke-width="0" stroke-linejoin="miter" stroke-miterlimit="2" fill="#4acd31" stroke="#4acd31" transform="translate(0 309.58000000000004) translate(356.57390449999974 2.8399999999999963) scale(1.95) translate(-431.72562 50.4)"></path>
        <path id="path487368" style="font-style:normal;font-weight:normal;font-size:72px;line-height:1;font-family:'Brandmark Sans 10';font-variant-ligatures:normal;text-align:center;text-anchor:middle" d="m 485.6975,-2.952 v -16.056 c 0,-10.944 -8.64,-19.8 -19.224,-19.8 -10.584,0 -19.224,8.856 -19.224,19.8 0,10.872 8.64,19.728 19.224,19.728 5.184,0 9.792,-2.088 13.248,-5.472 v 1.8 c 0,1.584 1.368,2.952 3.024,2.952 1.656,0 2.952,-1.368 2.952,-2.952 z m -32.472,-16.056 c 0,-7.632 5.976,-13.824 13.248,-13.824 7.344,0 13.248,6.192 13.248,13.824 0,7.56 -5.904,13.752 -13.248,13.752 -7.272,0 -13.248,-6.192 -13.248,-13.752 z" stroke-width="0" stroke-linejoin="miter" stroke-miterlimit="2" fill="#6ecc2e" stroke="#6ecc2e" transform="translate(0 309.58000000000004) translate(386.84547049999975 25.444399999999995) scale(1.95) translate(-447.2495 38.808)"></path>
        <path id="path487370" style="font-style:normal;font-weight:normal;font-size:72px;line-height:1;font-family:'Brandmark Sans 10';font-variant-ligatures:normal;text-align:center;text-anchor:middle" d="m 511.3745,-38.808 c -9.288,0 -16.848,7.776 -16.848,17.28 v 18.576 c 0,1.584 1.368,2.952 2.952,2.952 1.656,0 3.024,-1.368 3.024,-2.952 v -18.576 c 0,-6.264 4.896,-11.304 10.872,-11.304 5.976,0 10.872,5.04 10.872,11.304 v 18.576 c 0,1.584 1.296,2.952 2.952,2.952 1.656,0 3.024,-1.368 3.024,-2.952 v -18.576 c 0,-9.504 -7.56,-17.28 -16.848,-17.28 z" stroke-width="0" stroke-linejoin="miter" stroke-miterlimit="2" fill="#93cc2c" stroke="#93cc2c" transform="translate(0 309.58000000000004) translate(479.03562049999977 25.444399999999995) scale(1.95) translate(-494.5265 38.808)"></path>
        <path id="path487372" style="font-style:normal;font-weight:normal;font-size:72px;line-height:1;font-family:'Brandmark Sans 10';font-variant-ligatures:normal;text-align:center;text-anchor:middle" d="m 540.80787,-50.4 c -1.58399,0 -2.952,1.368 -2.952,2.952 v 44.496 c 0,1.584 1.36801,2.952 2.952,2.952 1.65601,0 3.024,-1.368 3.024,-2.952 v -44.496 c 0,-1.584 -1.36799,-2.952 -3.024,-2.952 z m 5.32801,27.864 c -1.008,1.152 -1.008,2.88 0.072,4.032 l 16.776,17.568 c 0.57601,0.648 1.368,0.936 2.16,0.936 0.72,0 1.44001,-0.288 2.088,-0.792 1.152,-1.152 1.224,-3.096 0.072,-4.248 l -14.832,-15.552 12.024,-13.248 c 1.08,-1.224 1.008,-3.096 -0.216,-4.176 -1.22399,-1.152 -3.096,-1.008 -4.17599,0.144 z" stroke-width="0" stroke-linejoin="miter" stroke-miterlimit="2" fill="#b7cb2a" stroke="#b7cb2a" transform="translate(0 309.58000000000004) translate(563.5278919999998 2.8399999999999963) scale(1.95) translate(-537.85587 50.4)"></path>
        <path id="path487374" style="font-style:normal;font-weight:normal;font-size:72px;line-height:1;font-family:'Brandmark Sans 10';font-variant-ligatures:normal;text-align:center;text-anchor:middle" d="m 605.22762,-37.296 c -1.65599,0 -3.024,1.296 -3.024,2.952 v 17.424 c 0,6.48 -5.03999,11.664 -11.15999,11.664 -6.192,0 -11.232,-5.184 -11.232,-11.664 v -17.424 c 0,-1.656 -1.36801,-2.952 -3.024,-2.952 -1.58401,0 -2.952,1.296 -2.952,2.952 v 17.568 c 0.072,9.648 7.77599,17.496 17.208,17.496 9.432,0 17.06399,-7.848 17.13599,-17.496 v -17.568 c 0,-1.656 -1.29599,-2.952 -2.952,-2.952 z" stroke-width="0" stroke-linejoin="miter" stroke-miterlimit="2" fill="#dbca27" stroke="#dbca27" transform="translate(0 309.58000000000004) translate(633.688424 28.3928) scale(1.95) translate(-573.83563 37.296)"></path>
        <path id="path487376" style="font-style:normal;font-weight:normal;font-size:72px;line-height:1;font-family:'Brandmark Sans 10';font-variant-ligatures:normal;text-align:center;text-anchor:middle" d="m 633.85887,-38.808 c -9.288,0 -16.84799,7.776 -16.84799,17.28 v 18.576 c 0,1.584 1.36799,2.952 2.952,2.952 1.65599,0 3.024,-1.368 3.024,-2.952 v -18.576 c 0,-6.264 4.896,-11.304 10.87199,-11.304 5.976,0 10.872,5.04 10.872,11.304 v 18.576 c 0,1.584 1.29601,2.952 2.952,2.952 1.65601,0 3.024,-1.368 3.024,-2.952 v -18.576 c 0,-9.504 -7.55999,-17.28 -16.848,-17.28 z" stroke-width="0" stroke-linejoin="miter" stroke-miterlimit="2" fill="#ffc925" stroke="#ffc925" transform="translate(0 309.58000000000004) translate(717.8801615000001 25.444399999999995) scale(1.95) translate(-617.01088 38.808)"></path>
      </g>
      <image xlink:href="" id="icon" x="0" y="0" style="display: none;"></image>
    </g>
  </g>
</svg>